<svg width="32" height="20" viewBox="0 0 32 20" fill="none" xmlns="http://www.w3.org/2000/svg">
<g opacity="0.4">
<path d="M25.8454 13.4869C25.8325 13.4869 25.8207 13.4905 25.8079 13.4906C26.0448 12.9427 26.1775 12.3392 26.1775 11.7043C26.1775 9.21472 24.1593 7.19643 21.6697 7.19643C20.7898 7.19643 19.9715 7.45251 19.2777 7.88845C18.3391 5.60734 16.097 3.99996 13.4774 3.99996C10.0133 3.99996 7.20531 6.80796 7.20531 10.272C7.20531 10.5338 7.22651 10.7903 7.25769 11.0436C7.24002 11.0434 7.22297 11.041 7.20531 11.041C4.88288 11.041 3 12.9238 3 15.2464C3 17.5688 4.88288 19.4516 7.20531 19.4516H25.8454C27.4926 19.4516 28.8278 18.1164 28.8278 16.4693C28.8278 14.8221 27.4926 13.4869 25.8454 13.4869Z" fill="white"/>
</g>
</svg>
